HIERARCHY
ROOT Hips
{
 OFFSET 0.000000 0.000000 0.000000
 CHANNELS 6 Xposition Yposition Zposition Yrotation Xrotation Zrotation
 JOINT Chest
 {
  OFFSET 0.000000 10.354800 0.006500
  CHANNELS 3 Yrotation Xrotation Zrotation
  JOINT Chest2
  {
   OFFSET 0.000000 10.435800 -0.013200
   CHANNELS 3 Yrotation Xrotation Zrotation
   JOINT Chest3
   {
    OFFSET 0.000000 10.393700 0.000000
    CHANNELS 3 Yrotation Xrotation Zrotation
    JOINT Chest4
    {
     OFFSET 0.000000 10.383100 0.000000
     CHANNELS 3 Yrotation Xrotation Zrotation
     JOINT Neck
     {
      OFFSET 0.000000 15.694000 0.000000
      CHANNELS 3 Yrotation Xrotation Zrotation
      JOINT Head
      {
       OFFSET 0.000000 9.711000 -0.028000
       CHANNELS 3 Yrotation Xrotation Zrotation
       End Site
       {
        OFFSET 0.000000 18.578700 -0.014800
       }
      }
     }
     JOINT RightCollar
     {
      OFFSET -3.157200 10.367500 0.000000
      CHANNELS 3 Yrotation Xrotation Zrotation
      JOINT RightShoulder
      {
       OFFSET -14.482500 0.000000 0.000000
       CHANNELS 3 Yrotation Xrotation Zrotation
       JOINT RightElbow
       {
        OFFSET 0.000000 -31.707800 0.000000
        CHANNELS 3 Yrotation Xrotation Zrotation
        JOINT RightWrist
        {
         OFFSET 0.000000 -25.659300 0.000000
         CHANNELS 3 Yrotation Xrotation Zrotation
         End Site
         {
          OFFSET 0.000000 -18.994300 0.000000
         }
        }
       }
      }
     }
     JOINT LeftCollar
     {
      OFFSET 3.157200 10.367500 0.000000
      CHANNELS 3 Yrotation Xrotation Zrotation
      JOINT LeftShoulder
      {
       OFFSET 14.482500 0.000000 0.000000
       CHANNELS 3 Yrotation Xrotation Zrotation
       JOINT LeftElbow
       {
        OFFSET 0.000000 -31.707800 0.000000
        CHANNELS 3 Yrotation Xrotation Zrotation
        JOINT LeftWrist
        {
         OFFSET 0.000000 -25.659300 0.000000
         CHANNELS 3 Yrotation Xrotation Zrotation
         End Site
         {
          OFFSET 0.000000 -18.994300 0.000000
         }
        }
       }
      }
     }
    }
   }
  }
 }
 JOINT RightHip
 {
  OFFSET -8.365600 -0.032100 -0.003200
  CHANNELS 3 Yrotation Xrotation Zrotation
  JOINT RightKnee
  {
   OFFSET 0.000000 -43.980000 0.003100
   CHANNELS 3 Yrotation Xrotation Zrotation
   JOINT RightAnkle
   {
    OFFSET 0.000000 -42.882800 0.005200
    CHANNELS 3 Yrotation Xrotation Zrotation
    JOINT RightToe
    {
     OFFSET 0.000000 -4.915500 10.826300
     CHANNELS 3 Yrotation Xrotation Zrotation
     End Site
     {
      OFFSET 0.000000 -1.517500 6.175900
     }
    }
   }
  }
 }
 JOINT LeftHip
 {
  OFFSET 8.365600 -0.032100 -0.003200
  CHANNELS 3 Yrotation Xrotation Zrotation
  JOINT LeftKnee
  {
   OFFSET 0.000000 -43.980000 0.003100
   CHANNELS 3 Yrotation Xrotation Zrotation
   JOINT LeftAnkle
   {
    OFFSET 0.000000 -42.882800 0.005200
    CHANNELS 3 Yrotation Xrotation Zrotation
    JOINT LeftToe
    {
     OFFSET 0.000000 -4.915500 10.826300
     CHANNELS 3 Yrotation Xrotation Zrotation
     End Site
     {
      OFFSET 0.000000 -1.517500 6.175900
     }
    }
   }
  }
 }
}
MOTION
Frames: 16
Frame Time: 0.008333
0.000000 91.618600 0.000000 0.000000 -5.767877 0.000000 0.000000 11.653817 0.000000 0.000000 -5.885947 0.000000 0.000000 -0.000000 0.000000 0.000000 -0.000000 0.000000 0.000000 12.528835 0.000000 0.000000 0.711642 0.000000 0.000000 -0.000000 0.000000 0.000000 0.000000 -90.000000 0.000000 -2.309062 0.000000 0.000000 2.309062 0.000000 0.000000 -0.000000 0.000000 0.000000 -0.000000 90.000000 0.000000 -2.309062 0.000000 0.000000 2.309062 0.000000 0.000000 8.520406 0.000000 0.000000 1.905762 0.000000 -0.000000 -4.658285 0.000000 0.000000 -0.000000 0.000000 0.000000 8.520406 0.000000 0.000000 1.905762 0.000000 -0.000000 -4.658285 0.000000 0.000000 -0.000000 0.000000
0.591561 126.609070 41.216788 174.603231 -21.643691 -2.541974 -1.669403 13.636910 3.584574 -0.162623 1.224320 0.335764 -0.308257 1.939624 0.537110 -1.526551 12.255269 3.243630 -3.152912 18.392932 -3.498638 -2.557141 -6.255749 -3.004070 4.596681 6.513360 -6.074858 -2.128950 -18.649685 -9.351541 -90.273479 -56.801599 106.319481 -23.927824 -4.785996 -21.612135 -3.643141 7.729569 -0.408016 14.316223 -13.333165 -2.302643 88.183584 -53.298001 -115.964992 26.870376 -3.527021 17.231484 8.473788 -60.740257 2.170537 -112.204855 81.467661 -105.345230 3.029870 -11.465333 -17.934178 -0.006202 -0.010719 -0.002816 -14.215930 -60.471201 11.052779 77.729092 81.165968 71.388581 -4.772975 -7.040853 1.735711 0.007772 -0.003831 0.003528
0.595096 126.612429 41.213245 174.578236 -21.686234 -2.542811 -1.658765 13.635319 3.580377 -0.182559 1.147438 0.317889 -0.301354 1.949543 0.537094 -1.540005 12.213004 3.223750 -3.353279 18.391621 -3.438806 -2.785179 -6.253738 -2.895732 4.816110 6.268166 -6.097756 -1.654400 -19.449187 -9.784854 -89.758638 -56.550165 104.700170 -24.082079 -5.646437 -22.867602 -3.750267 7.558352 -0.391798 14.400748 -14.189902 -2.407323 88.646495 -53.767055 -115.042805 26.680367 -4.065585 17.867660 8.463619 -60.688727 2.210253 -112.212586 81.470004 -105.343376 3.031289 -11.476159 -17.940197 -0.004653 -0.012099 -0.002112 -14.168396 -60.431730 11.029851 77.986568 81.192377 71.666722 -4.766686 -7.086904 1.731437 0.007671 -0.002050 0.003483
0.597434 126.615026 41.211831 174.562383 -21.715786 -2.538279 -1.657943 13.621846 3.568181 -0.198892 1.073458 0.299867 -0.295274 1.958116 0.536487 -1.552179 12.169914 3.202193 -3.533443 18.377147 -3.373947 -2.992800 -6.266410 -2.786328 5.026759 6.014831 -6.118352 -1.206419 -20.189613 -10.141523 -89.416266 -56.402759 103.175373 -24.100773 -6.255083 -23.754335 -3.864389 7.400726 -0.369543 14.507601 -14.956305 -2.529788 89.162682 -54.152524 -114.272700 26.536724 -4.447338 18.260008 8.469912 -60.651284 2.223463 -112.247291 81.461607 -105.368652 3.039690 -11.480065 -17.943690 -0.004244 -0.013069 -0.001927 -14.115067 -60.406041 10.993142 78.153244 81.209590 71.849895 -4.757590 -7.112109 1.736536 0.007469 -0.002111 0.003391
0.599760 126.617336 41.211276 174.545927 -21.739240 -2.530353 -1.687601 13.503555 3.522634 -0.180657 1.127394 0.310082 -0.295331 1.942696 0.530517 -1.563233 12.126786 3.178793 -3.694105 18.348479 -3.304152 -3.180686 -6.295114 -2.675880 5.222667 5.762307 -6.137594 -0.806205 -20.874952 -10.419877 -89.242102 -56.324648 101.806374 -24.035655 -6.632321 -24.271277 -3.983452 7.260839 -0.340882 14.669346 -15.647160 -2.667510 89.655630 -54.433763 -113.646151 26.501129 -4.727679 18.432244 8.489018 -60.616472 2.220142 -112.251723 81.459392 -105.364845 3.058266 -11.467452 -17.946304 -0.006065 -0.010781 -0.002753 -14.053013 -60.384157 10.946206 78.321869 81.225959 72.038113 -4.746665 -7.146285 1.737366 0.006108 -0.001075 0.002773
0.601700 126.619265 41.211459 174.529185 -21.755340 -2.517039 -1.697604 13.424393 3.487204 -0.169849 1.179404 0.321052 -0.295350 1.934984 0.527445 -1.582344 12.033632 3.141605 -3.836562 18.305573 -3.230897 -3.349840 -6.339859 -2.565662 5.406141 5.519787 -6.152155 -0.486217 -21.515334 -10.625300 -89.197956 -56.274594 100.635996 -23.946056 -6.840751 -24.479254 -4.101871 7.146435 -0.305375 14.910625 -16.283977 -2.824008 90.062817 -54.610449 -113.144044 26.592101 -4.948794 18.440679 8.502020 -60.595891 2.222833 -112.293047 81.449211 -105.407925 3.066598 -11.445667 -17.942953 -0.008291 -0.012745 -0.003764 -13.987743 -60.369378 10.896773 78.499501 81.243876 72.233270 -4.741066 -7.180230 1.739510 0.004751 -0.000351 0.002157
0.603131 126.620950 41.211774 174.522446 -21.765779 -2.501523 -1.710480 13.363291 3.453657 -0.164963 1.208559 0.326419 -0.295270 1.927171 0.524197 -1.598657 11.941847 3.105049 -3.961720 18.250202 -3.156149 -3.500666 -6.398597 -2.457576 5.578156 5.301669 -6.159944 -0.288657 -22.128314 -10.767445 -89.218725 -56.216414 99.680665 -23.879592 -6.939601 -24.452152 -4.214204 7.063042 -0.270706 15.232064 -16.884813 -2.996703 90.364861 -54.688314 -112.745306 26.772938 -5.121300 18.358443 8.518729 -60.581631 2.209989 -112.437797 81.429948 -105.547361 3.076035 -11.430905 -17.950939 -0.008854 -0.014720 -0.004019 -13.928452 -60.358990 10.841007 78.632344 81.255717 72.380096 -4.731317 -7.208157 1.743583 0.003116 -0.001674 0.001415
0.602885 126.622618 41.211207 174.536772 -21.774397 -2.481670 -1.742121 13.304156 3.410799 -0.168493 1.195931 0.320081 -0.294993 1.911414 0.517771 -1.594510 11.968368 3.104561 -4.081444 18.112511 -3.095384 -3.636579 -6.469703 -2.352630 5.728478 5.052042 -6.186254 -0.241428 -22.728191 -10.867281 -89.238652 -56.121981 98.933258 -23.858587 -6.999246 -24.278510 -4.318940 6.941830 -0.257820 15.609080 -17.465036 -3.181799 90.578430 -54.685388 -112.441662 26.997721 -5.258143 18.265016 8.530822 -60.565740 2.178423 -112.784475 81.405121 -105.888620 3.075706 -11.447765 -17.963948 -0.009713 -0.013327 -0.004409 -13.886568 -60.349639 10.776689 78.684697 81.257993 72.436754 -4.733388 -7.218243 1.749734 0.000018 -0.006842 0.000008
0.606119 126.624388 41.210369 174.538310 -21.781877 -2.474732 -1.750305 13.278528 3.395553 -0.175741 1.095861 0.298777 -0.292650 1.949529 0.520644 -1.598667 11.890295 3.078977 -4.179814 18.071844 -3.013518 -3.764468 -6.552640 -2.249896 5.869923 4.946485 -6.167461 -0.337738 -23.316444 -10.952252 -89.232166 -55.977823 98.381978 -23.893285 -7.081822 -24.057556 -4.397238 6.961617 -0.237358 16.006785 -18.034576 -3.373467 90.748120 -54.631035 -112.232073 27.236013 -5.373997 18.220920 8.493980 -60.546790 2.220660 -112.925803 81.391226 -106.043804 3.068466 -11.404729 -17.980292 -0.005023 -0.004007 -0.002281 -13.882952 -60.331985 10.766219 78.826987 81.277260 72.576199 -4.722350 -7.252448 1.755552 -0.003743 -0.006950 -0.001699
0.608668 126.625425 41.210233 174.531886 -21.779339 -2.461141 -1.752384 13.199167 3.372151 -0.174638 1.083121 0.295069 -0.292336 1.883754 0.505683 -1.599153 11.874931 3.067923 -4.277954 18.021813 -2.933664 -3.888910 -6.643695 -2.148071 5.986851 4.883606 -6.142407 -0.551503 -23.891732 -11.039511 -89.200927 -55.786041 98.015394 -23.992188 -7.212796 -23.871232 -4.463576 7.008794 -0.233246 16.390888 -18.590731 -3.562868 90.928931 -54.561370 -112.119333 27.457470 -5.474429 18.250440 8.514841 -60.544664 2.205410 -113.177141 81.387904 -106.285448 3.066349 -11.401751 -17.991366 -0.007674 -0.005762 -0.003484 -13.870884 -60.321294 10.755593 78.970387 81.295027 72.722765 -4.725897 -7.289991 1.763917 -0.003185 -0.005475 -0.001446
0.613071 126.626144 41.210005 174.526277 -21.772967 -2.458643 -1.744901 13.120751 3.363557 -0.179009 1.119916 0.298723 -0.284496 1.812486 0.493838 -1.605435 11.912976 3.070871 -4.369224 17.868618 -2.864318 -4.011820 -6.735991 -2.045938 6.090484 4.763855 -6.133790 -0.861276 -24.455451 -11.136480 -89.151280 -55.557271 97.820722 -24.151785 -7.389355 -23.773180 -4.510853 6.979957 -0.248788 16.743137 -19.125797 -3.750363 91.160052 -54.512759 -112.110516 27.638349 -5.572112 18.347499 8.490254 -60.537472 2.238172 -113.301632 81.386356 -106.414847 3.068090 -11.403185 -17.999449 -0.010887 -0.003859 -0.004943 -13.858767 -60.314583 10.751040 79.123889 81.318105 72.893552 -4.714343 -7.334072 1.757873 -0.001502 -0.005062 -0.000682
0.619304 126.626314 41.209948 174.523853 -21.761418 -2.468634 -1.736646 13.082067 3.372957 -0.179717 1.112498 0.296988 -0.271211 1.767727 0.488521 -1.602992 11.826630 3.058359 -4.471253 17.820773 -2.784891 -4.135642 -6.823559 -1.941406 6.165778 4.775926 -6.086995 -1.238142 -25.002974 -11.241928 -89.109706 -55.323282 97.784719 -24.346263 -7.596338 -23.785303 -4.560158 7.086748 -0.253281 17.056389 -19.640232 -3.945695 91.465205 -54.506655 -112.206765 27.769271 -5.678157 18.487771 8.382037 -60.526730 2.374985 -113.152535 81.359713 -106.309120 3.061398 -11.401381 -18.000554 -0.004548 -0.001088 -0.002065 -13.864546 -60.311136 10.768024 79.307966 81.338972 73.095011 -4.705206 -7.381346 1.756406 -0.002828 -0.004018 -0.001284
0.619668 126.626486 41.206972 174.541053 -21.757692 -2.453222 -1.752594 13.053182 3.349482 -0.158762 1.048155 0.291758 -0.273412 1.781722 0.488912 -1.595961 11.740218 3.045829 -4.575800 17.778596 -2.702059 -4.260537 -6.903277 -1.833385 6.220016 4.810051 -6.033574 -1.635526 -25.515177 -11.351210 -89.119363 -55.126533 97.891232 -24.537252 -7.818075 -23.894424 -4.603598 7.191839 -0.260019 17.314278 -20.096281 -4.124587 91.856880 -54.550046 -112.399904 27.849555 -5.794024 18.645547 8.386233 -60.517530 2.356836 -113.619255 81.368556 -106.768419 3.035423 -11.457892 -18.014262 -0.006515 -0.000241 -0.002958 -13.850045 -60.303083 10.734794 79.659335 81.372035 73.458264 -4.703907 -7.458543 1.749165 0.001713 0.000532 0.000778
0.620149 126.625122 41.206227 174.544465 -21.737181 -2.435569 -1.737914 12.984085 3.337031 -0.150031 1.025873 0.286794 -0.277106 1.777990 0.485273 -1.588393 11.685870 3.038041 -4.674312 17.711507 -2.618921 -4.385414 -6.973975 -1.722396 6.261267 4.822929 -5.986397 -2.003360 -25.967671 -11.466561 -89.223326 -54.995788 98.115673 -24.700682 -8.032368 -24.059244 -4.633738 7.255553 -0.270550 17.506074 -20.484659 -4.280407 92.335450 -54.644563 -112.674487 27.889729 -5.920361 18.798792 8.406417 -60.528647 2.337936 -113.822622 81.362978 -106.969505 3.036176 -11.477340 -18.022095 -0.009738 -0.003218 -0.004421 -13.926355 -60.286449 10.795003 79.731483 81.390646 73.487569 -4.704140 -7.503555 1.744939 0.002658 0.008495 0.001207
0.623348 126.623682 41.204804 174.542538 -21.719355 -2.431413 -1.715899 12.921868 3.337961 -0.137203 1.004428 0.282575 -0.279790 1.773197 0.482122 -1.600066 11.691636 3.038318 -4.747453 17.592573 -2.541938 -4.509513 -7.035165 -1.609869 6.315191 4.780291 -5.959262 -2.307038 -26.345910 -11.589682 -89.448657 -54.949049 98.427199 -24.827534 -8.216442 -24.236078 -4.633340 7.270412 -0.280460 17.631935 -20.828184 -4.424322 92.895797 -54.782394 -113.013141 27.902956 -6.048337 18.924650 8.400189 -60.533446 2.365984 -113.878413 81.347966 -107.027009 3.031760 -11.495276 -18.027351 -0.010483 -0.005783 -0.004759 -13.983247 -60.281193 10.847675 79.867290 81.409456 73.608016 -4.694901 -7.541077 1.731284 0.001222 0.007610 0.000555
0.624650 126.620968 41.205076 174.557337 -21.687425 -2.424601 -1.705682 12.846437 3.329130 -0.135178 1.001866 0.281461 -0.276099 1.754756 0.478012 -1.574873 11.604408 3.026456 -4.854046 17.573993 -2.451822 -4.630456 -7.086500 -1.496930 6.327581 4.824958 -5.909694 -2.525360 -26.645068 -11.719444 -89.804638 -54.994927 98.799715 -24.911866 -8.361362 -24.395774 -4.668997 7.371158 -0.277569 17.693518 -21.119775 -4.540940 93.520235 -54.943397 -113.395163 27.896094 -6.168718 19.009159 8.372447 -60.553529 2.409417 -113.983915 81.322460 -107.145817 3.001297 -11.525025 -18.032425 -0.001960 -0.009096 -0.000890 -14.050092 -60.292562 10.894016 79.925551 81.421427 73.643310 -4.695523 -7.559885 1.728128 -0.003244 0.004960 -0.001473
